<?xml version="1.0" encoding="UTF-8" standalone="no"?>
<!-- Created with Inkscape (http://www.inkscape.org/) -->

<svg
   width="100mm"
   height="100mm"
   viewBox="0 0 100 100"
   version="1.1"
   id="svg1"
   inkscape:version="1.3.2 (091e20ef0f, 2023-11-25, custom)"
   sodipodi:docname="hole_foods.svg"
   xmlns:inkscape="http://www.inkscape.org/namespaces/inkscape"
   xmlns:sodipodi="http://sodipodi.sourceforge.net/DTD/sodipodi-0.dtd"
   xmlns="http://www.w3.org/2000/svg"
   xmlns:svg="http://www.w3.org/2000/svg">
  <sodipodi:namedview
     id="namedview1"
     pagecolor="#ffffff"
     bordercolor="#000000"
     borderopacity="0.25"
     inkscape:showpageshadow="2"
     inkscape:pageopacity="0.0"
     inkscape:pagecheckerboard="0"
     inkscape:deskcolor="#d1d1d1"
     inkscape:document-units="mm"
     inkscape:zoom="0.81643253"
     inkscape:cx="502.18479"
     inkscape:cy="299.47361"
     inkscape:window-width="1784"
     inkscape:window-height="1125"
     inkscape:window-x="0"
     inkscape:window-y="0"
     inkscape:window-maximized="0"
     inkscape:current-layer="layer1" />
  <defs
     id="defs1" />
  <g
     inkscape:label="Layer 1"
     inkscape:groupmode="layer"
     id="layer1"
     transform="translate(0,-197)">
    <path
       id="path92"
       style="opacity:1;fill:#006f46;fill-opacity:1;stroke-width:0.660669"
       d="m 67.207467,248.79819 c 0,0 -0.551661,0.0371 -0.822531,0.0801 -1.046369,0.16847 -1.357677,0.45173 -1.357677,1.74006 v 10.16237 c 0,1.38575 0.862964,1.46834 2.080313,1.53684 2.971357,0.16847 4.697353,-2.47088 4.697353,-6.73945 0,-4.27121 -1.714436,-6.77976 -4.597395,-6.77976 0,0 -0.551656,0.0371 -0.822531,0.0801 -1.046364,0.16847 -1.357672,0.45172 -1.357672,1.74006 v 10.16237 c 0,1.38575 0.862964,1.46833 2.080313,1.53684 2.971357,0.16847 4.697353,-2.47089 4.697353,-6.73946 0,-4.27121 -1.714436,-6.77976 -4.597395,-6.77976 m -15.285224,0.14865 c -2.665793,0 -4.314955,2.54278 -4.314955,6.7573 0,4.12005 1.623596,6.61393 4.36292,6.61393 2.663289,0 4.334778,-2.59146 4.334778,-6.65952 0,-4.12004 -1.694613,-6.71171 -4.382743,-6.71171 m -15.906247,0 c -2.665003,0 -4.310861,2.54278 -4.310861,6.7573 0,4.12005 1.619431,6.61393 4.359619,6.61393 2.665796,0 4.337287,-2.59146 4.337287,-6.65952 0,-4.12004 -1.697125,-6.71171 -4.386045,-6.71171 m 11.346087,21.3651 h -1.794508 c -0.185811,0 -0.379884,0.0652 -0.379884,0.29647 v 1.30892 c 0,0.20563 0.194073,0.32537 0.379884,0.32537 h 1.794508 c 0.602861,0 1.094199,-0.31711 1.094199,-0.96536 0,-0.64824 -0.491375,-0.96537 -1.094199,-0.96537 m -9.168623,2.51715 c -0.04043,-0.0743 -0.637545,-1.30892 -0.708567,-1.46338 -0.06607,-0.13709 -0.231234,-0.14535 -0.29152,0.006 -0.06854,0.16847 -0.657365,1.35186 -0.697005,1.43696 -0.06607,0.14039 0.0083,0.23205 0.14287,0.23205 h 1.408016 c 0.103229,0 0.205633,-0.0917 0.146173,-0.21141 M 49.999999,196.99999 C 22.385416,196.99999 0,219.38601 0,246.99986 0,274.61437 22.386077,296.99999 49.999999,296.99999 77.61789,296.99999 100,274.61371 100,246.99986 100,219.38534 77.617233,196.99999 49.999999,196.99999 Z m -8.467397,21.17855 c 0.358328,-0.0115 0.740196,0.0348 1.144855,0.15095 2.745867,0.78289 2.55182,3.05134 4.548691,3.76235 0.716825,0.25436 0.659924,0.97447 0.03479,1.09418 -1.054559,0.19984 -2.387641,-0.4832 -3.540506,-1.52872 -1.152865,-1.04552 -2.141156,-1.13046 -3.247485,-0.56393 -1.106328,0.56652 -1.76509,-0.21472 -2.443364,1.71687 0.64331,-0.74453 1.970503,-1.05378 2.228519,-1.06587 0.128208,-0.006 0.3404,3.7e-4 0.243419,0.3623 0.614157,-0.16452 2.114114,0.0872 2.80782,0.86558 1.171036,1.31393 3.353493,2.48803 5.285148,1.22788 0.531838,-0.3452 0.877022,-1.0594 1.417118,-0.90494 0.577259,0.16269 0.585558,1.00251 -0.170906,1.97943 -1.786309,2.30322 -3.617077,2.02906 -5.580055,3.95159 -1.960531,1.92254 -2.356832,4.10837 -2.356832,6.88528 0,4.30589 1.693636,6.91386 4.556778,6.91386 2.785505,0 4.533864,-2.70773 4.533864,-6.96453 0,-3.50893 -0.830758,-5.77751 -2.9143,-6.57771 -1.008315,-0.37411 -0.836443,-1.35949 0.463384,-1.51389 1.071074,-0.12553 2.119791,0.23956 3.270938,1.08851 1.986099,1.46259 2.977111,3.78818 2.977111,6.90335 0,5.41997 -3.265201,8.88844 -8.404862,8.88844 -5.01698,0 -8.283551,-3.46852 -8.283551,-8.7631 0,-3.40573 1.280047,-6.02836 3.494139,-7.50825 0.925727,-0.69205 2.49153,-1.48913 4.025999,-2.00854 0.317124,-0.10901 0.314678,-0.67215 -0.248543,-0.56313 -0.671375,0.13461 -1.905949,0.23119 -2.925891,-0.18007 -1.144208,-0.4513 -1.856087,-1.20702 -2.64527,-1.57886 -0.09874,-0.0465 -0.08265,0.0624 -0.325638,0.13937 -0.172675,0.0463 -1.75106,-0.53934 -1.525754,-1.38019 -0.136453,0.0361 -0.286012,-0.0918 -0.286012,-0.32455 0,-1.51635 1.358116,-4.42308 3.866412,-4.50366 z m -18.25541,10.04838 h 4.817987 c 0.800201,0 1.065333,0.1626 1.065333,0.69441 0,0.39722 -0.265326,0.68551 -0.599789,0.68551 h -0.465544 c -0.199852,0 -0.389062,0.14871 -0.463387,0.30892 -0.04546,0.18004 -0.06524,0.34836 -0.06524,0.95373 v 3.12914 c 0,1.11983 0.09676,1.21386 0.994437,1.21386 h 3.29412 c 0.482287,0 0.731768,-0.0766 0.853991,-0.217 0.111488,-0.14865 0.111332,-0.24281 0.111332,-1.14297 v -2.98303 c 0,-0.63093 1.55e-4,-0.77363 -0.05931,-0.95373 -0.08589,-0.18581 -0.277447,-0.30892 -0.443439,-0.30892 h -0.462579 c -0.365845,0 -0.659903,-0.28828 -0.659903,-0.68551 0,-0.53184 0.294136,-0.69441 1.122482,-0.69441 h 4.409053 c 0.825039,0 1.119785,0.16261 1.119785,0.69441 0,0.39723 -0.294775,0.68551 -0.625937,0.68551 h -0.493848 c -0.165993,0 -0.360141,0.14871 -0.41217,0.30892 -0.06854,0.18003 -0.08491,0.34836 -0.08491,0.95373 v 10.89187 c 0,0.63093 0.01637,0.77357 0.08491,0.97098 0.05206,0.16847 0.246177,0.28924 0.41217,0.28924 h 0.493848 c 0.360065,0 0.625937,0.31707 0.625937,0.67635 0,0.53761 -0.265873,0.70357 -1.119785,0.70357 h -4.409053 c -0.828346,0 -1.090942,-0.16596 -1.090942,-0.70357 0,-0.35924 0.2939,-0.67635 0.628363,-0.67635 h 0.462579 c 0.165992,0 0.357552,-0.12077 0.443439,-0.28924 0.05946,-0.19738 0.05957,-0.34005 0.05957,-0.97098 v -3.5405 c 0,-0.90016 -1.13e-4,-0.99439 -0.111601,-1.13973 -0.122223,-0.14287 -0.371704,-0.22024 -0.853991,-0.22024 h -3.29412 c -0.897715,0 -0.994437,0.0948 -0.994437,1.21467 v 3.6858 c 0,0.63093 0.01985,0.77384 0.06524,0.97125 0.07432,0.16847 0.263536,0.28897 0.463387,0.28897 h 0.465814 c 0.334463,0 0.583075,0.31705 0.583075,0.70519 0,0.50871 -0.277559,0.67473 -1.048889,0.67473 h -4.419836 c -0.814272,0 -1.109272,-0.16596 -1.109272,-0.70357 0,-0.35924 0.294995,-0.67635 0.628633,-0.67635 h 0.480639 c 0.170948,0 0.370775,-0.12077 0.417022,-0.28924 0.07432,-0.19738 0.07413,-0.32271 0.07413,-0.97098 v -10.89187 c 0,-1.2371 -0.580453,-1.31967 -1.005758,-1.26265 l -0.02642,-0.0256 c -0.534315,-0.0488 -0.77959,-0.29149 -0.77959,-0.67716 0,-0.48558 0.277518,-0.67715 0.922461,-0.67715 z m 45.305203,0.018 h 9.682612 c 0.488892,0 0.762991,0.16356 0.862886,0.60868 l 0.342893,1.68642 c 0.131309,0.62267 -0.0884,0.95723 -0.531051,0.95723 -0.234537,0 -0.459992,-0.0603 -0.623507,-0.37739 -0.02806,-0.0487 -0.127892,-0.22567 -0.239379,-0.52297 -0.237014,-0.6235 -0.726016,-0.70033 -1.854899,-0.70033 h -2.285127 c -1.322982,0 -1.471568,0.17434 -1.471568,1.46267 v 2.8806 c 0,0.54257 0.07676,0.77945 0.222931,0.8769 0.111491,0.0768 0.291553,0.0941 0.986077,0.0941 h 1.127877 c 1.017423,0 1.162988,-0.0743 1.237312,-0.5599 l 0.01727,-0.14852 c 0.07433,-0.41127 0.291631,-0.60546 0.657477,-0.60546 0.507885,0 0.677154,0.2883 0.677154,1.13973 v 2.0374 c 0,0.84816 -0.169269,1.13973 -0.677154,1.13973 -0.365846,0 -0.583148,-0.2198 -0.657477,-0.63106 l -0.02561,-0.16013 c -0.07185,-0.48558 -0.21714,-0.55746 -1.237052,-0.55746 h -1.119785 c -0.694488,0 -0.874623,0.0173 -0.986078,0.0941 -0.14617,0.0975 -0.222931,0.33207 -0.222931,0.87798 v 3.0736 c 0,1.28335 0.0767,1.55421 0.459883,1.70286 0.311339,0.11726 0.648239,0.16848 1.442727,0.16848 l 2.411552,-0.006 c 0.865479,0 1.477453,-0.27085 1.777263,-0.89927 0.137089,-0.28574 0.18001,-0.39471 0.208914,-0.44344 0.162691,-0.31712 0.419383,-0.45665 0.656398,-0.45665 0.44017,0 0.657456,0.33452 0.528625,0.95724 l -0.374161,1.88292 5.22e-4,-2.7e-4 c -0.09662,0.44513 -0.374025,0.60842 -0.862886,0.60842 l -0.619465,0.003 h -9.512237 c -0.816715,0 -1.094173,-0.16264 -1.094173,-0.70277 0,-0.35676 0.277375,-0.65154 0.602752,-0.65154 h 0.491421 c 0.168471,0 0.337787,-0.14867 0.388986,-0.31135 0.07433,-0.19738 0.09408,-0.31719 0.09408,-0.97125 v -10.8455 c 0,-0.62846 -0.01977,-0.75476 -0.09408,-0.9513 -0.05122,-0.21472 -0.246117,-0.36015 -0.388986,-0.36015 H 68.09098 c -0.325377,0 -0.622699,-0.31708 -0.622699,-0.67715 0,-0.53761 0.297405,-0.71192 1.11412,-0.71192 z m -12.407131,5.2e-4 -2.71e-4,5.3e-4 h 4.479951 c 0.873731,0 1.171272,0.17431 1.171272,0.71193 0,0.38566 -0.297453,0.67715 -0.642652,0.67715 h -0.52862 c -0.222977,0 -0.440133,0.11963 -0.508678,0.31701 -0.07184,0.16269 -0.0717,0.31145 -0.0717,0.94321 v 10.18479 c 0,1.06618 0.04606,1.31476 0.33184,1.47993 0.248574,0.17177 0.61947,0.21727 1.593956,0.21727 h 1.365898 c 0.865479,0 1.477453,-0.27112 1.777263,-0.89955 0.137089,-0.28904 0.180026,-0.39472 0.208106,-0.44344 0.163515,-0.31712 0.420243,-0.45988 0.65478,-0.45988 0.442648,0 0.659882,0.33776 0.531051,0.96047 l -0.374161,1.88293 c -0.09745,0.44512 -0.374025,0.60868 -0.862885,0.60868 h -9.125145 c -0.808525,0 -1.074497,-0.16024 -1.074497,-0.70034 0,-0.35676 0.266029,-0.65154 0.605449,-0.65154 h 0.469048 c 0.160213,0 0.356701,-0.14866 0.405428,-0.31135 0.07185,-0.18003 0.09435,-0.29748 0.09435,-0.90278 v -10.96573 c 0,-0.65488 -0.02248,-0.75135 -0.09435,-0.94294 -0.04877,-0.19738 -0.245215,-0.31728 -0.405428,-0.31728 h -0.469048 c -0.365017,0 -0.659903,-0.29149 -0.659903,-0.67716 0,-0.53761 0.294824,-0.71192 1.128951,-0.71192 z m 24.718029,18.94007 c 0.685443,0 1.385794,0.065 2.091847,0.217 0.0735,0.0256 0.271084,0.0712 0.61381,0.1488 0.111486,0.0223 0.237688,0.0477 0.331835,0.0477 0.160208,0 0.345246,-0.079 0.556658,-0.21942 0.240317,-0.17425 0.31701,-0.19409 0.511912,-0.19409 0.356754,0 0.585595,0.24276 0.683085,0.67715 l 0.579841,2.62289 c 0.04293,0.11397 0.04288,0.26016 0.04288,0.33696 0,0.31712 -0.283358,0.57956 -0.697101,0.57956 -0.26014,0 -0.420212,-0.0965 -0.64319,-0.40785 -0.545871,-0.82583 -0.648317,-0.92086 -1.154558,-1.31144 -0.650759,-0.50872 -1.485872,-0.7804 -2.279467,-0.7804 -1.120694,0 -1.845729,0.63739 -1.845729,1.63169 0,0.35676 0.06271,0.72519 0.262555,0.99363 0.245272,0.36584 0.634347,0.74911 1.114125,1.11492 0.29978,0.21389 0.682939,0.4912 1.199848,0.8513 1.914284,1.33375 2.542851,1.82033 3.323234,2.61723 0.820022,0.84816 1.311448,2.05949 1.311448,3.3057 0,2.80279 -2.09182,4.65424 -5.294313,4.65434 -0.894336,-2e-5 -1.854028,-0.12625 -2.54607,-0.34342 -0.348506,-0.0941 -0.388303,-0.11996 -0.525391,-0.11996 -0.205633,0 -0.308919,0.0489 -0.517029,0.24045 -0.228758,0.17426 -0.348408,0.22293 -0.563127,0.22293 -0.405486,0 -0.605177,-0.22304 -0.748051,-0.80357 l -0.612188,-2.4253 c -0.04543,-0.14535 -0.06254,-0.36601 -0.06254,-0.48576 0,-0.43108 0.334453,-0.75721 0.765573,-0.75721 0.251882,0 0.459768,0.1288 0.608411,0.32618 l 0.348553,0.47982 c 0.839845,1.1859 2.197548,1.92013 3.583368,1.92013 1.57404,0 2.648505,-0.88046 2.648505,-2.16301 0,-0.65736 -0.271543,-1.23708 -0.788489,-1.82011 -0.525229,-0.57974 -1.176806,-1.11395 -2.571677,-2.08268 -2.296608,-1.60873 -2.511526,-1.75491 -3.265544,-2.62289 -0.611119,-0.70857 -0.923272,-1.57733 -0.923272,-2.54606 0,-2.35118 1.788729,-3.90522 4.46027,-3.90522 z m -14.022924,2.6e-4 c 3.022557,0 4.899819,0.65673 6.385529,2.15978 1.426248,1.43199 2.199942,3.63686 2.199942,6.25719 0,2.93416 -0.988618,5.35975 -2.788139,6.79175 -1.397312,1.13139 -3.151356,1.64597 -5.797332,1.64597 -3.025858,0 -5.002765,-0.27174 -5.711333,-0.37496 -0.706125,-0.10241 -1.071262,-0.17686 -1.071262,-0.70869 v -2.8e-4 c 0,-0.36584 0.242972,-0.67391 0.576601,-0.67391 h 0.494661 c 0.165993,0 0.330985,-0.12872 0.411089,-0.31701 0.04867,-0.17425 0.0744,-0.32057 0.0744,-0.95481 v -10.79671 c 0,-0.63176 -0.02561,-0.77946 -0.0744,-0.95454 -0.0801,-0.18498 -0.245096,-0.317 -0.411089,-0.317 h -0.494661 c -0.333629,0 -0.576601,-0.30808 -0.576601,-0.67392 0,-0.52854 0.365204,-0.60299 1.071262,-0.7087 0.708568,-0.10323 2.685475,-0.37416 5.711333,-0.37416 z m -30.82644,0.014 c 3.997039,0 6.8405,2.22888 7.71126,5.86254 0.09167,0.41705 0.44616,0.38562 0.522962,-0.0108 0,-0.006 -1.7e-4,-0.0115 0.0081,-0.0148 0.888598,-3.63445 3.685837,-5.83693 7.665165,-5.83693 4.846003,0 7.994036,3.27111 7.994036,8.36008 0,5.18293 -3.124815,8.50269 -8.042831,8.50269 h -0.001 c -3.911154,0 -6.711154,-2.20827 -7.610983,-5.76847 -0.01156,-0.0256 -0.01986,-0.0512 -0.02561,-0.0801 -0.0801,-0.3997 -0.44004,-0.42843 -0.525927,-0.003 0,0.0141 -0.0117,0.028 -0.01752,0.0429 -0.908418,3.61134 -3.722832,5.8081 -7.725817,5.8081 -4.79724,0 -7.919906,-3.31993 -7.919906,-8.38327 0,-5.18213 3.100029,-8.47951 7.968159,-8.47951 z m -19.478171,0.32078 h 10.514498 c 0.488068,0 0.765489,0.16275 0.862078,0.60787 l 0.343699,1.68615 c 0.131308,0.61937 -0.08926,0.95723 -0.529431,0.95723 -0.237015,0 -0.462439,-0.0627 -0.625128,-0.37982 -0.02894,-0.0463 -0.125394,-0.22627 -0.240185,-0.52027 -0.237015,-0.62268 -0.726065,-0.70276 -1.854088,-0.70276 h -3.114319 c -1.325431,0 -1.473997,0.17655 -1.473997,1.46241 v 2.88302 c 0,0.54257 0.07671,0.77721 0.225358,0.87717 0.111488,0.0776 0.28825,0.0941 0.98608,0.0941 h 2.005046 c 1.017429,0 1.162992,-0.0743 1.237317,-0.5599 l 0.01725,-0.15122 c 0.07432,-0.41127 0.29143,-0.60599 0.653972,-0.60599 0.512018,0 0.680659,0.29135 0.680659,1.14027 v 2.03982 c 0,0.84895 -0.168641,1.13973 -0.680659,1.13973 -0.362542,0 -0.579647,-0.2198 -0.653972,-0.63106 l -0.02561,-0.16012 c -0.07185,-0.48559 -0.217142,-0.55989 -1.237047,-0.55989 h -1.99696 c -0.697797,0 -0.874624,0.0173 -0.986079,0.0941 -0.14865,0.0999 -0.225359,0.33453 -0.225359,0.88041 l 0.0081,3.95159 -0.0025,2.6e-4 c 0,0.65406 1.33e-4,0.77149 0.05715,0.94241 0.102404,0.19407 0.32296,0.32025 0.517032,0.32025 h 0.548301 c 0.379884,0 0.643189,0.31131 0.643189,0.67715 0,0.53432 -0.297348,0.70303 -1.19176,0.70303 h -4.462697 c -0.828345,0 -1.119785,-0.16868 -1.119785,-0.70303 0,-0.36584 0.291491,-0.67715 0.625128,-0.67715 h 0.494657 c 0.165167,0 0.328829,-0.12618 0.408935,-0.32025 0.0512,-0.17095 0.07656,-0.28838 0.07656,-0.94241 v -10.84684 c 0,-0.62846 -0.01969,-0.75397 -0.09731,-0.94807 -0.0512,-0.21472 -0.245309,-0.36338 -0.388178,-0.36338 h -0.491422 c -0.326205,0 -0.622702,-0.31377 -0.622702,-0.67634 0,-0.53432 0.296581,-0.70842 1.114124,-0.70842 z m 20.794471,21.73655 c 0.239492,0 0.370612,0.08 0.450718,0.25097 0,0 2.437123,5.19464 2.505634,5.3466 0.126353,0.27087 -0.399608,0.31943 -0.576337,0.31943 -0.177554,0 -0.446021,-0.0289 -0.529431,-0.22293 l -0.376587,-0.77959 c -0.04876,-0.10323 -0.148674,-0.18573 -0.271724,-0.18573 h -2.403198 c -0.151128,0 -0.288273,0.11388 -0.37416,0.3286 l -0.333456,0.63672 c -0.07432,0.18581 -0.437788,0.21484 -0.606258,0.21484 -0.14865,0 -0.636671,-0.0175 -0.483066,-0.34369 l 2.55173,-5.2935 c 0.07102,-0.15443 0.205818,-0.27172 0.446135,-0.27172 z m 20.892056,0.006 c 0.11964,0.003 0.238069,0.0593 0.353671,0.17037 0.19159,0.18333 0.276707,0.38891 0.06281,0.60032 -0.148648,0.14535 -1.828478,1.66566 -1.828478,1.66566 -0.208935,0.18003 -0.156843,0.34854 -0.01403,0.50544 0,0 2.016568,2.2232 2.22798,2.45198 0.317119,0.3452 0.02572,0.51703 -0.436701,0.51703 -0.491374,0 -0.626027,-0.0769 -0.751556,-0.22886 l -1.865676,-1.99102 c -0.25436,-0.2205 -0.508459,-0.25448 -0.85696,-0.25448 -0.194892,0 -0.346122,0.19981 -0.346122,0.43104 v 1.69719 c 0,0.32291 -0.27676,0.34343 -0.579841,0.34343 -0.320421,0 -0.488725,-0.089 -0.488725,-0.34585 v -5.18054 c 0,-0.30556 0.191377,-0.35664 0.568787,-0.35664 0.297297,0 0.499779,0.0686 0.499779,0.34855 v 1.56322 c 0,0.25105 0.114819,0.37416 0.271725,0.37416 0.454213,0 0.551547,-0.0975 0.720017,-0.24288 0.188283,-0.16021 2.102629,-1.9177 2.102629,-1.9177 0.120156,-0.10282 0.241042,-0.15331 0.360682,-0.15042 z m -28.137772,0.0275 c 0.202329,0 0.351082,0.0463 0.436969,0.38656 l 0.591163,5.19941 c 0.02893,0.2973 -0.436799,0.29734 -0.639955,0.29734 v -2.8e-4 c -0.14865,0 -0.425378,-0.0825 -0.425378,-0.27738 l -0.411091,-3.11081 c -0.02643,-0.12883 -0.07442,-0.186 -0.177645,-0.186 -0.08258,0 -0.125515,0.0398 -0.182497,0.11161 l -1.397171,1.78858 c -0.07185,0.0966 -0.166167,0.15715 -0.277655,0.15715 -0.159386,0 -0.228596,-0.0406 -0.319438,-0.17441 l -1.285839,-1.73412 c -0.05695,-0.0719 -0.119935,-0.0917 -0.186002,-0.0917 -0.102404,0 -0.154441,0.0916 -0.16848,0.21134 l -0.403004,3.00864 c -0.03719,0.24858 -0.342518,0.29706 -0.594398,0.29706 -0.17425,0 -0.470935,-0.0824 -0.470935,-0.30541 l 0.591432,-5.07137 c 0.06276,-0.30308 0.128131,-0.47741 0.565823,-0.47741 0.111488,0 0.291474,0.0313 0.431039,0.24855 l 1.597191,2.24549 c 0.08589,0.12305 0.18327,0.22623 0.288976,0.22293 0.105707,-0.003 0.213754,-0.11154 0.305421,-0.23128 l 1.685608,-2.2916 c 0.103229,-0.1569 0.260053,-0.22293 0.445866,-0.22293 z m 14.270926,0 h 3.068762 c 1.185106,0 2.077021,0.76315 2.077021,1.98617 0,1.05707 -0.763011,1.40318 -1.06857,1.66242 -0.151126,0.13213 -0.188152,0.22291 -0.09731,0.35421 0.04627,0.0694 0.862797,1.25442 0.982577,1.43194 0.180031,0.2684 0.01753,0.44614 -0.539136,0.44614 -0.31134,0 -0.520441,-0.0546 -0.655052,-0.25447 l -0.904941,-1.40634 c -0.103228,-0.15691 -0.251871,-0.25689 -0.455026,-0.25689 h -1.294198 c -0.156911,0 -0.30569,0.12884 -0.30569,0.28574 l 0.0084,1.4031 c 0,0.27665 -0.536818,0.23129 -0.713546,0.23129 -0.23206,0 -0.360143,-0.0661 -0.360143,-0.32537 l 0.0084,-5.33501 c 0,-0.13956 0.119711,-0.22293 0.248541,-0.22293 z m 18.370788,0.009 h 4.462696 c 0.265919,0 0.313775,0.17673 0.313775,0.49384 0,0.29483 -0.03959,0.52836 -0.327792,0.52836 h -3.489017 c -0.139567,0 -0.23965,0.10927 -0.23965,0.2604 v 0.78848 c 0,0.16599 0.119666,0.2569 0.276577,0.2569 h 2.014215 c 0.242795,0 0.306498,0.21223 0.306498,0.52027 0,0.26839 -0.05787,0.50301 -0.283316,0.50301 h -2.00855 c -0.160213,0 -0.305424,0.11125 -0.305424,0.29706 v 0.85399 c 0,0.20563 0.111413,0.30326 0.276577,0.30326 h 3.454516 c 0.228757,0 0.308924,0.15095 0.308924,0.52835 0,0.2717 -0.06289,0.49466 -0.30569,0.49466 h -4.448679 c -0.257662,0 -0.363378,-0.12305 -0.363378,-0.42861 v -5.01179 c 0,-0.22793 0.0918,-0.38818 0.357718,-0.38818 z m 8.140408,0.0116 h 4.559205 c 0.205633,0 0.342888,0.11402 0.342888,0.49142 0,0.33446 -0.08847,0.51919 -0.319706,0.51919 h -1.411187 c -0.194073,0 -0.334532,0.0636 -0.334532,0.29733 l 0.0083,4.22007 c 0,0.2973 -0.211475,0.33211 -0.542642,0.33211 -0.319596,0 -0.534285,-0.0323 -0.534285,-0.32052 v -4.22573 c 0,-0.20563 -0.07447,-0.30326 -0.331297,-0.30326 h -1.42871 c -0.23123,0 -0.297333,-0.22205 -0.297333,-0.40786 0,-0.20563 -0.01716,-0.60275 0.289243,-0.60275 z" />
  </g>
</svg>
